<?xml version="1.0" encoding="UTF-8" standalone="no"?>
<!DOCTYPE svg PUBLIC "-//W3C//DTD SVG 1.1//EN"
 "http://www.w3.org/Graphics/SVG/1.1/DTD/svg11.dtd">
<!-- Generated by graphviz version 2.43.0 (0)
 -->
<!-- Title: pastafarianism Pages: 1 -->
<svg width="359pt" height="188pt"
 viewBox="0.00 0.00 359.07 188.00" xmlns="http://www.w3.org/2000/svg" xmlns:xlink="http://www.w3.org/1999/xlink">
<g id="graph0" class="graph" transform="scale(1 1) rotate(0) translate(4 184)">
<title>pastafarianism</title>
<polygon fill="white" stroke="transparent" points="-4,4 -4,-184 355.07,-184 355.07,4 -4,4"/>
<!-- Mission -->
<g id="node1" class="node">
<title>Mission</title>
<polygon fill="orange" stroke="black" points="209.61,-180 143.61,-180 143.61,-144 209.61,-144 209.61,-180"/>
<text text-anchor="middle" x="176.61" y="-159.8" font-family="Times,serif" font-size="9.00">Ⓜ Mission</text>
</g>
<!-- Drive to start -->
<g id="node2" class="node">
<title>Drive to start</title>
<ellipse fill="gray" stroke="black" cx="45.61" cy="-90" rx="45.72" ry="18"/>
<text text-anchor="middle" x="45.61" y="-87.8" font-family="Times,serif" font-size="9.00">Drive to start</text>
</g>
<!-- Mission&#45;&gt;Drive to start -->
<g id="edge1" class="edge">
<title>Mission&#45;&gt;Drive to start</title>
<path fill="none" stroke="black" d="M144.56,-143.88C125.21,-133.53 100.53,-120.34 80.65,-109.73"/>
<polygon fill="black" stroke="black" points="82.08,-106.52 71.61,-104.9 78.78,-112.69 82.08,-106.52"/>
</g>
<!-- Deploy antenna? -->
<g id="node3" class="node">
<title>Deploy antenna?</title>
<polygon fill="cyan" stroke="black" points="244.09,-82.54 244.09,-97.46 204.56,-108 148.66,-108 109.13,-97.46 109.13,-82.54 148.66,-72 204.56,-72 244.09,-82.54"/>
<text text-anchor="middle" x="176.61" y="-87.8" font-family="Times,serif" font-size="9.00">Ⓜ Deploy antenna?</text>
</g>
<!-- Mission&#45;&gt;Deploy antenna? -->
<g id="edge2" class="edge">
<title>Mission&#45;&gt;Deploy antenna?</title>
<path fill="none" stroke="black" d="M176.61,-143.7C176.61,-135.98 176.61,-126.71 176.61,-118.11"/>
<polygon fill="black" stroke="black" points="180.11,-118.1 176.61,-108.1 173.11,-118.1 180.11,-118.1"/>
</g>
<!-- Drive to end  -->
<g id="node6" class="node">
<title>Drive to end </title>
<ellipse fill="gray" stroke="black" cx="306.61" cy="-90" rx="44.41" ry="18"/>
<text text-anchor="middle" x="306.61" y="-87.8" font-family="Times,serif" font-size="9.00">Drive to end </text>
</g>
<!-- Mission&#45;&gt;Drive to end  -->
<g id="edge5" class="edge">
<title>Mission&#45;&gt;Drive to end </title>
<path fill="none" stroke="black" d="M208.41,-143.88C227.62,-133.53 252.12,-120.34 271.84,-109.73"/>
<polygon fill="black" stroke="black" points="273.66,-112.72 280.81,-104.9 270.34,-106.55 273.66,-112.72"/>
</g>
<!-- Deploy antenna -->
<g id="node4" class="node">
<title>Deploy antenna</title>
<ellipse fill="gray" stroke="black" cx="120.61" cy="-18" rx="51.27" ry="18"/>
<text text-anchor="middle" x="120.61" y="-15.8" font-family="Times,serif" font-size="9.00">Deploy antenna</text>
</g>
<!-- Deploy antenna?&#45;&gt;Deploy antenna -->
<g id="edge3" class="edge">
<title>Deploy antenna?&#45;&gt;Deploy antenna</title>
<path fill="none" stroke="black" d="M162.77,-71.7C155.95,-63.18 147.62,-52.76 140.17,-43.45"/>
<polygon fill="black" stroke="black" points="142.89,-41.24 133.91,-35.62 137.42,-45.62 142.89,-41.24"/>
</g>
<!-- Drive to end -->
<g id="node5" class="node">
<title>Drive to end</title>
<ellipse fill="gray" stroke="black" cx="232.61" cy="-18" rx="42.95" ry="18"/>
<text text-anchor="middle" x="232.61" y="-15.8" font-family="Times,serif" font-size="9.00">Drive to end</text>
</g>
<!-- Deploy antenna?&#45;&gt;Drive to end -->
<g id="edge4" class="edge">
<title>Deploy antenna?&#45;&gt;Drive to end</title>
<path fill="none" stroke="black" d="M190.45,-71.7C197.27,-63.18 205.6,-52.76 213.05,-43.45"/>
<polygon fill="black" stroke="black" points="215.8,-45.62 219.31,-35.62 210.33,-41.24 215.8,-45.62"/>
</g>
</g>
</svg>
